<svg width="56" height="55" viewBox="0 0 56 55" fill="none" xmlns="http://www.w3.org/2000/svg">
<rect width="56" height="55" rx="8" fill="#6781C8"/>
<path d="M21.4545 23.25C21.2955 22.697 21.072 22.2083 20.7841 21.7841C20.4962 21.3523 20.1439 20.9886 19.7273 20.6932C19.3182 20.3902 18.8485 20.1591 18.3182 20C17.7955 19.8409 17.2159 19.7614 16.5795 19.7614C15.3902 19.7614 14.3447 20.0568 13.4432 20.6477C12.5492 21.2386 11.8523 22.0985 11.3523 23.2273C10.8523 24.3485 10.6023 25.7197 10.6023 27.3409C10.6023 28.9621 10.8485 30.3409 11.3409 31.4773C11.8333 32.6136 12.5303 33.4811 13.4318 34.0795C14.3333 34.6705 15.3977 34.9659 16.625 34.9659C17.7386 34.9659 18.6894 34.7689 19.4773 34.375C20.2727 33.9735 20.8788 33.4091 21.2955 32.6818C21.7197 31.9545 21.9318 31.0947 21.9318 30.1023L22.9318 30.25H16.9318V26.5455H26.6705V29.4773C26.6705 31.5227 26.2386 33.2803 25.375 34.75C24.5114 36.2121 23.322 37.3409 21.8068 38.1364C20.2917 38.9242 18.5568 39.3182 16.6023 39.3182C14.4205 39.3182 12.5038 38.8371 10.8523 37.875C9.20076 36.9053 7.91288 35.5303 6.98864 33.75C6.07197 31.9621 5.61364 29.8409 5.61364 27.3864C5.61364 25.5 5.88636 23.8182 6.43182 22.3409C6.98485 20.8561 7.75758 19.5985 8.75 18.5682C9.74242 17.5379 10.8977 16.7538 12.2159 16.2159C13.5341 15.678 14.9621 15.4091 16.5 15.4091C17.8182 15.4091 19.0455 15.6023 20.1818 15.9886C21.3182 16.3674 22.3258 16.9053 23.2045 17.6023C24.0909 18.2992 24.8144 19.1288 25.375 20.0909C25.9356 21.0455 26.2955 22.0985 26.4545 23.25H21.4545ZM33.8523 15.7273L39.4773 33.4091H39.6932L45.3295 15.7273H50.7841L42.7614 39H36.4205L28.3864 15.7273H33.8523Z" fill="white"/>
</svg>
