<svg width="40" height="40" viewBox="0 0 40 40" fill="none" xmlns="http://www.w3.org/2000/svg">
<path d="M35 7.8125H5C4.75136 7.8125 4.5129 7.91127 4.33709 8.08709C4.16127 8.2629 4.0625 8.50136 4.0625 8.75V30C4.0625 30.5802 4.29297 31.1366 4.7032 31.5468C5.11344 31.957 5.66984 32.1875 6.25 32.1875H33.75C34.3302 32.1875 34.8866 31.957 35.2968 31.5468C35.707 31.1366 35.9375 30.5802 35.9375 30V8.75C35.9375 8.50136 35.8387 8.2629 35.6629 8.08709C35.4871 7.91127 35.2486 7.8125 35 7.8125ZM32.5906 9.6875L20 21.2281L7.40937 9.6875H32.5906ZM33.75 30.3125H6.25C6.16712 30.3125 6.08763 30.2796 6.02903 30.221C5.97042 30.1624 5.9375 30.0829 5.9375 30V10.8812L19.375 23.1906C19.5478 23.3487 19.7736 23.4364 20.0078 23.4364C20.242 23.4364 20.4678 23.3487 20.6406 23.1906L34.0625 10.8812V30C34.0625 30.0829 34.0296 30.1624 33.971 30.221C33.9124 30.2796 33.8329 30.3125 33.75 30.3125Z" fill="white"/>
</svg>
