<svg width="41" height="41" viewBox="0 0 41 41" fill="none" xmlns="http://www.w3.org/2000/svg">
<path d="M29.4636 23.3332L24.4636 20.8332C24.3159 20.7597 24.1514 20.7266 23.9868 20.737C23.8222 20.7474 23.6633 20.8011 23.5261 20.8926L21.0761 22.5254C19.8357 21.8904 18.8266 20.8813 18.1917 19.641L19.8261 17.1926C19.9176 17.0553 19.9712 16.8964 19.9816 16.7318C19.9921 16.5672 19.9589 16.4027 19.8854 16.2551L17.3854 11.2551C17.3077 11.0986 17.1878 10.967 17.0393 10.8751C16.8908 10.7832 16.7195 10.7345 16.5448 10.7347C14.9701 10.7347 13.4599 11.3603 12.3464 12.4738C11.2329 13.5873 10.6073 15.0975 10.6073 16.6722C10.6115 20.2348 12.0285 23.6503 14.5476 26.1694C17.0668 28.6885 20.4822 30.1056 24.0448 30.1097C25.6195 30.1097 27.1298 29.4842 28.2433 28.3707C29.3568 27.2572 29.9823 25.747 29.9823 24.1722C29.9824 23.998 29.9339 23.8272 29.8422 23.679C29.7506 23.5308 29.6195 23.411 29.4636 23.3332ZM24.0448 28.2347C20.9794 28.231 18.0406 27.0116 15.873 24.8441C13.7054 22.6765 12.486 19.7377 12.4823 16.6722C12.4824 15.6918 12.8371 14.7444 13.4809 14.0049C14.1248 13.2655 15.0143 12.7838 15.9854 12.6488L17.9636 16.6051L16.3401 19.0394C16.2548 19.1678 16.2025 19.3153 16.1878 19.4687C16.1731 19.6221 16.1964 19.7769 16.2558 19.9191C17.1178 21.9687 18.7483 23.5992 20.7979 24.4613C20.9402 24.5206 21.0949 24.544 21.2484 24.5293C21.4018 24.5146 21.5492 24.4622 21.6776 24.3769L24.112 22.7535L28.0683 24.7316C27.9333 25.7028 27.4516 26.5923 26.7121 27.2361C25.9727 27.88 25.0253 28.2347 24.0448 28.2347ZM20.2948 4.48474C17.532 4.48416 14.8165 5.20182 12.4146 6.5673C10.0128 7.93278 8.00724 9.89918 6.59464 12.2736C5.18204 14.648 4.41094 17.3488 4.35701 20.1111C4.30308 22.8734 4.96816 25.6023 6.28701 28.0301L4.47138 33.4785C4.34285 33.8639 4.32419 34.2775 4.41751 34.673C4.51083 35.0684 4.71244 35.43 4.99973 35.7173C5.28703 36.0046 5.64866 36.2062 6.04409 36.2995C6.43953 36.3929 6.85314 36.3742 7.23857 36.2457L12.687 34.4301C14.8198 35.5875 17.1887 36.2426 19.6131 36.3454C22.0375 36.4483 24.4534 35.9962 26.6766 35.0236C28.8997 34.0509 30.8714 32.5835 32.4414 30.7332C34.0113 28.8829 35.1379 26.6985 35.7354 24.3466C36.333 21.9947 36.3855 19.5375 35.8892 17.1622C35.3928 14.7869 34.3606 12.5563 32.8713 10.6405C31.3819 8.72473 29.4748 7.17432 27.2953 6.10752C25.1158 5.04071 22.7214 4.48568 20.2948 4.48474ZM20.2948 34.4847C17.8228 34.4853 15.3944 33.8343 13.2542 32.5972C13.1115 32.5152 12.95 32.4716 12.7854 32.4707C12.6846 32.4713 12.5844 32.4876 12.4886 32.5191L6.64638 34.466C6.59132 34.4844 6.53223 34.487 6.47574 34.4737C6.41925 34.4604 6.36759 34.4316 6.32655 34.3905C6.28551 34.3495 6.25671 34.2978 6.24337 34.2413C6.23004 34.1848 6.23271 34.1257 6.25107 34.0707L8.19795 28.2347C8.24007 28.1086 8.25489 27.975 8.24142 27.8427C8.22795 27.7105 8.1865 27.5826 8.11982 27.4676C6.56866 24.788 5.94516 21.6715 6.34606 18.6014C6.74695 15.5313 8.14983 12.6794 10.3371 10.488C12.5243 8.29662 15.3736 6.88833 18.4429 6.48161C21.5122 6.07488 24.6299 6.69247 27.3124 8.23854C29.9949 9.78462 32.0921 12.1728 33.2788 15.0324C34.4655 17.8921 34.6752 21.0635 33.8755 24.0546C33.0757 27.0457 31.3112 29.6892 28.8557 31.5751C26.4002 33.4609 23.391 34.4837 20.2948 34.4847Z" fill="white"/>
</svg>
